<svg xmlns="http://www.w3.org/2000/svg" version="1.1" xmlns:xlink="http://www.w3.org/1999/xlink" xmlns:svgjs="http://svgjs.dev/svgjs" viewBox="0 0 600 600"><path d="M330.235595703125,70.68062591552734C324.7382100423177,69.76439539591472,313.2198842366536,69.3717269897461,309.8167419433594,69.10994720458984C306.4135996500651,68.8481674194336,314.659673055013,69.24083709716797,309.8167419433594,69.10994720458984C304.97381083170575,68.97905731201172,297.1204096476237,64.52879587809245,280.7591552734375,68.3246078491211C264.3979008992513,72.12041982014973,228.92670186360678,83.76963551839192,211.6492156982422,91.88481903076172C194.3717295328776,100.00000254313152,185.47120157877603,109.16230646769206,177.09423828125,117.01570892333984C168.71727498372397,124.86911137898763,168.45549774169922,126.57067998250325,161.38743591308594,139.00523376464844C154.31937408447266,151.4397875467936,142.0157101949056,176.83245595296225,134.6858673095703,191.62303161621094C127.35602442423503,206.41360727945963,122.77487182617188,215.8376897176107,117.40837860107422,227.74868774414062C112.04188537597656,239.65968577067056,107.85339991251628,247.64399210611978,102.48690795898438,263.0890197753906C97.12041600545247,278.53404744466144,88.2198969523112,301.57068888346356,85.20942687988281,320.4188537597656C82.19895680745442,339.2670186360677,81.80628712972005,357.85340372721356,84.42408752441406,376.1780090332031C87.04188791910808,394.5026143391927,92.67015584309895,415.57590738932294,100.91622924804688,430.3664855957031C109.1623026529948,445.1570638020833,120.41885121663411,454.3193817138672,133.90052795410156,464.9214782714844C147.382204691569,475.52357482910156,161.5183334350586,486.12566630045575,181.80628967285156,493.97906494140625C202.09424591064453,501.83246358235675,234.8167495727539,507.4607238769531,255.62826538085938,512.0418701171875C276.43978118896484,516.6230163574219,283.5078430175781,520.1570434570312,306.6753845214844,521.4659423828125C329.8429260253906,522.7748413085938,365.0523630777995,521.5968322753906,394.6335144042969,519.895263671875C424.21466573079425,518.1936950683594,460.0785268147786,515.706787109375,484.16229248046875,511.25653076171875C508.2460581461589,506.8062744140625,527.225107828776,504.18848673502606,539.1361083984375,493.1937255859375C551.047108968099,482.19896443684894,552.0942586263021,465.7068125406901,555.6282958984375,445.2879638671875C559.1623331705729,424.8691151936849,560.4712219238281,395.02618408203125,560.34033203125,370.6806335449219C560.2094421386719,346.3350830078125,557.8534342447916,319.8952891031901,554.8429565429688,299.21466064453125C551.8324788411459,278.5340321858724,548.5601908365885,265.96858978271484,542.2774658203125,246.59686279296875C535.9947408040365,227.22513580322266,526.5706888834635,199.73822530110678,517.1466064453125,182.9842987060547C507.72252400716144,166.2303721110026,499.3455403645833,158.63874944051108,485.73297119140625,146.07330322265625C472.1204020182292,133.50785700480142,451.3088836669922,117.27748616536458,435.47119140625,107.59162139892578C419.6334991455078,97.90575663248698,406.15184020996094,93.45549647013347,390.7068176269531,87.95811462402344C375.2617950439453,82.4607327779134,352.8795928955078,77.48691177368164,342.8010559082031,74.60733032226562C332.72251892089844,71.72774887084961,335.7329813639323,71.59685643513997,330.235595703125,70.68062591552734C324.7382100423177,69.76439539591472,313.2198842366536,69.3717269897461,309.8167419433594,69.10994720458984" fill="url(&quot;#ssshape-pattern3&quot;)" stroke-width="35" stroke="hsl(105, 81%, 37%)" transform="matrix(0.95,0,0,0.95,-5.440329360961925,20.310025405883778)"></path><defs><pattern id="ssshape-pattern3" width="90" height="90" viewBox="0 0 40 40" patternUnits="userSpaceOnUse" patternTransform="scale(0.3) rotate(13)">
  <rect width="100%" height="100%" fill="none"></rect>
  <path d="M11 20L20 0L20 40zM31 20L40 0L40 40zM0-20L9 0L0 20zM0 20L9 40L0 60zM20-20L29 0L20 20zM20 20L29 40L20 60z" fill="hsl(89, 13%, 24%)"></path>
</pattern></defs></svg>