<svg xmlns="http://www.w3.org/2000/svg" version="1.1" xmlns:xlink="http://www.w3.org/1999/xlink" xmlns:svgjs="http://svgjs.dev/svgjs" viewBox="0 0 600 600"><path d="M85.20942687988281,202.6177978515625C81.80628458658855,164.26701227823892,158.76962534586588,86.12565358479817,192.80104064941406,94.24083709716797C226.83245595296225,102.35602060953777,256.54451243082684,251.43978881835938,289.3979187011719,251.30889892578125C322.2513249715169,251.17800903320312,353.9267171223958,98.69109853108723,389.9214782714844,93.45549774169922C425.91623942057294,88.2198969523112,508.2460683186849,180.2356096903483,505.3664855957031,219.89529418945312C502.4869028727214,259.5549786885579,372.2513122558594,298.2984212239583,372.64398193359375,331.4136047363281C373.0366516113281,364.52878824869794,506.4136047363281,386.2565460205078,507.7225036621094,418.5863952636719C509.0314025878906,450.91624450683594,416.62302652994794,528.7958424886068,380.49737548828125,525.3927001953125C344.37172444661456,521.9895579020182,316.2303771972656,398.29844156901044,290.9685974121094,398.16754150390625C265.7068176269531,398.03664143880206,261.78010177612305,522.6439514160156,228.92669677734375,524.6072998046875C196.07329177856445,526.5706481933594,96.46596781412761,443.3245900472005,93.8481674194336,409.9476318359375C91.23036702473958,376.5706736246745,214.65968449910483,358.90052286783856,213.2198944091797,324.3455505371094C211.78010431925455,289.7905782063802,88.61256917317708,240.96858342488608,85.20942687988281,202.6177978515625C81.80628458658855,164.26701227823892,158.76962534586588,86.12565358479817,192.80104064941406,94.24083709716797" fill="url(&quot;#ssshape-pattern12&quot;)" transform="matrix(1,0,0,1,3.5818023681640625,-9.37091064453125)"></path><defs><pattern id="ssshape-pattern12" width="70" height="70" viewBox="0 0 40 40" patternUnits="userSpaceOnUse" patternTransform="scale(0.2) rotate(18)">
  <rect width="100%" height="100%" fill="#c0134d"></rect>
  <path d="M19.4 20a 0.6 0.6 0 0 0 1.2 0a 0.6 0.6 0 0 0-1.2 0M18.8 20a 1.2 1.2 0 0 0 2.4 0a 1.2 1.2 0 0 0-2.4 0M18.2 20a 1.8 1.8 0 0 0 3.6 0a 1.8 1.8 0 0 0-3.6 0M17.6 20a 2.4 2.4 0 0 0 4.8 0a 2.4 2.4 0 0 0-4.8 0M17 20a 3 3 0 0 0 6 0a 3 3 0 0 0-6 0M16.4 20a 3.6 3.6 0 0 0 7.2 0a 3.6 3.6 0 0 0-7.2 0M15.8 20a 4.2 4.2 0 0 0 8.4 0a 4.2 4.2 0 0 0-8.4 0M15.2 20a 4.8 4.8 0 0 0 9.6 0a 4.8 4.8 0 0 0-9.6 0M14.6 20a 5.4 5.4 0 0 0 10.8 0a 5.4 5.4 0 0 0-10.8 0M14 20a 6 6 0 0 0 12 0a 6 6 0 0 0-12 0M13.4 20a 6.6 6.6 0 0 0 13.2 0a 6.6 6.6 0 0 0-13.2 0M12.8 20a 7.2 7.2 0 0 0 14.4 0a 7.2 7.2 0 0 0-14.4 0M12.2 20a 7.8 7.8 0 0 0 15.6 0a 7.8 7.8 0 0 0-15.6 0M11.6 20a 8.4 8.4 0 0 0 16.8 0a 8.4 8.4 0 0 0-16.8 0M11 20a 9 9 0 0 0 18 0a 9 9 0 0 0-18 0M10.4 20a 9.6 9.6 0 0 0 19.2 0a 9.6 9.6 0 0 0-19.2 0M9.8 20a 10.2 10.2 0 0 0 20.4 0a 10.2 10.2 0 0 0-20.4 0M9.2 20a 10.8 10.8 0 0 0 21.6 0a 10.8 10.8 0 0 0-21.6 0M8.6 20a 11.4 11.4 0 0 0 22.8 0a 11.4 11.4 0 0 0-22.8 0M8 20a 12 12 0 0 0 24 0a 12 12 0 0 0-24 0" fill="#b70016"></path>
</pattern></defs></svg>